<?xml version="1.0" encoding="UTF-8"?>
<svg width="9.0373mm" height="10.881mm" version="1.1" viewBox="0 0 9.0373 10.881" xmlns="http://www.w3.org/2000/svg">
 <g transform="translate(5.6116 -6.9301)">
  <g transform="matrix(.042409 0 0 .042409 -5.3737 6.6362)">
   <g transform="matrix(5.092 0 0 5.0062 -321.56 -787.81)" fill="#666" fill-rule="evenodd" stroke-width=".26614">
    <path d="m83.729 158.75a21.68 16.322 0 0 0-21.681 16.321 21.68 16.322 0 0 0 21.681 16.322v-6.5417a16.168 10.201 0 0 1-15.801-10.188 16.168 10.201 0 0 1 15.801-10.188z"/>
    <path d="m82.217 158.75c7.8887-1.9e-4 14.793 3.1716 18.587 7.9137 1.9643 2.4556 3.0942 5.3324 3.0942 8.4078 1.4e-4 9.0146-9.7069 16.322-21.681 16.322v-6.5417c8.7777-0.12579 15.792-4.6484 15.801-10.188-3e-3 -1.7466-0.70211-3.3922-1.9335-4.8306-2.6741-3.1238-7.8575-5.2712-13.868-5.3574z"/>
   </g>
   <g transform="matrix(5.092 0 0 5.0062 -363.49 -628.17)" fill="#08a" fill-rule="evenodd" stroke-width=".26614">
    <path d="m70.399 144.65a21.68 16.322 0 0 0 21.585 14.857v-6.5417a16.168 10.201 0 0 1-15.501-8.3158z"/>
    <path d="m112.02 144.65a21.68 16.322 0 0 1-21.585 14.857v-6.5417a16.168 10.201 0 0 0 15.501-8.3158z"/>
   </g>
   <ellipse cx="100.94" cy="178.73" rx="88.161" ry="84.77" fill="#08a" stroke-width="0"/>
  </g>
 </g>
</svg>
